{"title":"Breaking Bad S05E09 480p HDTV x264 AAC E-Subs [GWC].mp4","uid":8804878,"size":126342592,"categoryP":"video","categoryS":"tv_shows","magnet":"?xt=urn:btih:cd59b1b351853daaa970379992f055301e208022&amp;dn=Breaking+Bad+S05E09+480p+HDTV+x264+AAC+E-Subs+%5BGWC%5D.mp4&amp;tr=udp%3A%2F%2Ftracker.openbittorrent.com%3A80&amp;tr=udp%3A%2F%2Fopen.demonii.com%3A1337&amp;tr=udp%3A%2F%2Ftracker.coppersurfer.tk%3A6969&amp;tr=udp%3A%2F%2Fexodus.desync.com%3A6969","seeders":2,"leechers":0,"uploader":"canc232","files":1,"time":1376303743,"description":"Breaking Bad S05E09 480p HDTV x264 AAC E-Subs [GWC]\nEpisode Title : Blood Money \nEpisode Summary :\nWalt and Jesse adjust to life out of the business and Hank grapples with a troubling lead\n\nSCREENS:\n &lt;a href=&quot;\nhttp://imageshack.us/a/img42/176/3b4e.jpg&quot; rel=&quot;nofollow&quot; target=&quot;_NEW&quot;&gt;\nhttp://imageshack.us/a/img42/176/3b4e.jpg&lt;/a&gt; &lt;a href=&quot;\nhttp://imageshack.us/a/img802/2422/0df2.jpg&quot; rel=&quot;nofollow&quot; target=&quot;_NEW&quot;&gt;\nhttp://imageshack.us/a/img802/2422/0df2.jpg&lt;/a&gt; &lt;a href=&quot;\nhttp://imageshack.us/a/img694/9237/x6iq.jpg&quot; rel=&quot;nofollow&quot; target=&quot;_NEW&quot;&gt;\nhttp://imageshack.us/a/img694/9237/x6iq.jpg&lt;/a&gt;\n\nMEDIA INFO :\nGeneral \nFormat : MPEG-4 \nFile size : 120 MiB \nDuration : 47mn 14s \nOverall bit rate mode : Variable \nOverall bit rate : 357 Kbps \n\nVideo \nID : 201 \nFormat : AVC \nFormat profile : &lt;a class=&quot;__cf_email__&quot; href=&quot;/cdn-cgi/l/email-protection&quot; data-cfemail=&quot;4a02232d220a0679647a&quot;&gt;[email&amp;#160;protected]&lt;/a&gt;&lt;script cf-hash='f9e31' type=&quot;text/javascript&quot;&gt;\n/* &lt;![CDATA[ */!function(){try{var t=&quot;currentScript&quot;in document?document.currentScript:function(){for(var t=document.getElementsByTagName(&quot;script&quot;),e=t.length;e--;)if(t[e].getAttribute(&quot;cf-hash&quot;))return t[e]}();if(t&amp;&amp;t.previousSibling){var e,r,n,i,c=t.previousSibling,a=c.getAttribute(&quot;data-cfemail&quot;);if(a){for(e=&quot;&quot;,r=parseInt(a.substr(0,2),16),n=2;a.length-n;n+=2)i=parseInt(a.substr(n,2),16)^r,e+=String.fromCharCode(i);e=document.createTextNode(e),c.parentNode.replaceChild(e,c)}}}catch(u){}}();/* ]]&gt; */&lt;/script&gt; \nFormat settings, CABAC : Yes \nFormat settings, ReFrames : 4 frames \nCodec ID/Info : Advanced Video Coding \nDuration : 47mn 8s \nBit rate : 298 Kbps \nMaximum bit rate : 1 130 Kbps \nWidth : 720 pixels \nHeight : 408 pixels \nDisplay aspect ratio : 16:9 \nFrame rate mode : Constant \nFrame rate : 23.976 fps \nStream size : 101 MiB (83%) \nTitle : Breaking Bad S05E09 480p HDTV x264 AAC [GWC] \nWriting library : x264 core\n\nAudio \nID : 1 \nFormat : AAC \nFormat profile : HE-AAC / LC \nCodec ID : 40 \nDuration : 47mn 8s \nBit rate mode : Variable \nChannel(s) : 2 channels \nSampling rate : 44.1 KHz / 22.05 KHz \nCompression mode : Lossy \nStream size : 18.9 MiB (16%) \n\nText \nID : 202 \nFormat : Timed Text \nDuration : 47mn 14s \nStream size : 20.8 KiB \nTitle : English Subtitle by n17t01 \nLanguage : English","torrent":{"xt":"urn:btih:cd59b1b351853daaa970379992f055301e208022","amp;dn":"Breaking+Bad+S05E09+480p+HDTV+x264+AAC+E-Subs+%5BGWC%5D.mp4","amp;tr":["udp%3A%2F%2Ftracker.openbittorrent.com%3A80","udp%3A%2F%2Fopen.demonii.com%3A1337","udp%3A%2F%2Ftracker.coppersurfer.tk%3A6969","udp%3A%2F%2Fexodus.desync.com%3A6969"],"infoHash":"cd59b1b351853daaa970379992f055301e208022","infoHashBuffer":{"type":"Buffer","data":[205,89,177,179,81,133,61,170,169,112,55,153,146,240,85,48,30,32,128,34]},"announce":[],"urlList":[]}}